PathFileType	4	(X/Y/Z)	D:\Share\Shared_Data\Ergonomics\Sit To Stand Pertubation\S1\Perturbed_NoHarness.trc
DataRate	CameraRate	NumFrames	NumMarkers	Units	OrigDataRate	OrigDataStartFrame	OrigNumFrames	
100	100	11	18	m	100	3387	231
Frame#	Time	L_ASIS			R_ASIS			R_Pelvis			V_Sacral			L_Pelvis			Clavical			R_Acromium			L_Acromium			Sternum			Torso			R_Thigh_Med			R_Thigh_Lat			R_Thigh			R_Shank_Med			R_Shank_Lat			R_Shank			R_Heel			R_Toe			
		X1	Y1	Z1	X2	Y2	Z2	X3	Y3	Z3	X4	Y4	Z4	X5	Y5	Z5	X6	Y6	Z6	X7	Y7	Z7	X8	Y8	Z8	X9	Y9	Z9	X10	Y10	Z10	X11	Y11	Z11	X12	Y12	Z12	X13	Y13	Z13	X14	Y14	Z14	X15	Y15	Z15	X16	Y16	Z16	X17	Y17	Z17	X18	Y18	Z18	

3387	33.86	0.27082208	0.71815759	-0.085087944	0.16952153	0.74662701	0.14460104	0.24624344	0.71354248	0.11359979	0.055600002	0.72828186	0.0065877051	0.18158827	0.74665106	-0.13202936	0.46121506	0.97994867	0.0090199528	0.44332803	1.0831085	0.15302458	0.38476624	1.0701116	-0.1880276	0.44803311	1.0064108	0.10697803	0.45616055	0.99504602	-0.044868065	0.42539517	0.3963259	0.027044264	0.43738333	0.4201669	0.14675421	0.36563937	0.58369495	0.10423093	0.35106277	0.089525383	0.10045773	0.33001086	0.099848526	0.18085204	0.39429227	0.30129874	0.1755311	0.27314944	0.034591278	0.13335664	0.47830084	0.044741531	0.14606544
3388	33.87	0.27490704	0.72502747	-0.08502298	0.17366486	0.75241571	0.14498102	0.25040024	0.72008514	0.11373022	0.060123074	0.73420715	0.0060876503	0.18561748	0.75269598	-0.13208981	0.461521	0.99023737	0.0090592299	0.44232556	1.0926301	0.15321912	0.38416479	1.0784358	-0.18850681	0.44860828	1.0161038	0.10714853	0.45656924	1.004768	-0.044880348	0.42554755	0.39648608	0.027154842	0.43805414	0.42036194	0.14678226	0.36865262	0.58507281	0.10448637	0.35104776	0.08954538	0.10044595	0.3300152	0.099833786	0.1808515	0.39437659	0.30124652	0.17565935	0.27315463	0.034600555	0.13335339	0.47826511	0.044719379	0.14604796
3389	33.88	0.27902859	0.73195044	-0.085015579	0.17786369	0.75818439	0.14531857	0.2546205	0.72662665	0.11383016	0.064703415	0.74020892	0.0056292124	0.18968932	0.75875793	-0.13203723	0.46172418	1.0005373	0.0091126499	0.44123105	1.1021646	0.1534104	0.38349948	1.0867754	-0.18901784	0.44908228	1.0258275	0.10731762	0.45688702	1.0145178	-0.044875557	0.42558417	0.39667419	0.027287525	0.43862512	0.42058344	0.14683652	0.37157523	0.58639465	0.10474843	0.35102527	0.089572342	0.10044581	0.33000531	0.09981945	0.18086189	0.39438528	0.30121759	0.17580951	0.27315665	0.034604477	0.13335008	0.47822562	0.044715828	0.14604437
3390	33.89	0.28318375	0.73890198	-0.085054131	0.18212192	0.76392474	0.14561206	0.25890717	0.73314795	0.11389349	0.0693414	0.74628809	0.0052231045	0.19380542	0.76482727	-0.13187108	0.46183719	1.0108087	0.0091781864	0.44005807	1.1116866	0.15359151	0.38278134	1.0951099	-0.18954984	0.44945609	1.035558	0.10748445	0.45712241	1.0242717	-0.044856033	0.42550562	0.39689014	0.027443708	0.43909415	0.42083093	0.14691795	0.37442508	0.58767834	0.10502657	0.35099518	0.089607109	0.10045728	0.32998135	0.099805969	0.18088322	0.39431873	0.30121252	0.17598212	0.27315564	0.034604145	0.13334741	0.4781828	0.044730171	0.1460554
3391	33.9	0.2873692	0.74585901	-0.085128128	0.18644229	0.76963196	0.14586256	0.26326212	0.73963519	0.11391657	0.074036575	0.75244043	0.004876492	0.19796567	0.77089398	-0.1316002	0.46187198	1.0210175	0.0092527866	0.43882034	1.121173	0.15375562	0.38202225	1.1034185	-0.19008719	0.44973233	1.0452714	0.10764848	0.45728458	1.0340071	-0.044825325	0.42531259	0.39713406	0.027625879	0.43945886	0.42110406	0.14702864	0.37722064	0.58894232	0.10533128	0.35095758	0.089650726	0.10048048	0.32994351	0.099793686	0.18091573	0.39417703	0.30123193	0.17617848	0.27315198	0.034600609	0.13334586	0.47813708	0.044761681	0.1460817
3392	33.91	0.29158173	0.75280096	-0.085228844	0.19082639	0.77530341	0.14607339	0.267686	0.74607898	0.11389836	0.078787781	0.75865619	0.0045930648	0.20216789	0.77694855	-0.1312439	0.46184012	1.0311345	0.0093325119	0.43753119	1.1306021	0.15389667	0.38123505	1.1116816	-0.19061008	0.44991553	1.0549443	0.10780943	0.45738284	1.0437023	-0.044788151	0.42500626	0.39740643	0.027837442	0.43971683	0.42140271	0.14717155	0.37997946	0.59020361	0.10567261	0.35091248	0.089704353	0.10051567	0.32989185	0.099782959	0.18095975	0.39395996	0.30127612	0.17640059	0.27314603	0.034594875	0.13334579	0.4780889	0.044809494	0.14612381
3393	33.92	0.29581851	0.75970935	-0.085349434	0.19527444	0.78093762	0.1462493	0.27217862	0.75247437	0.11383995	0.083593201	0.76491986	0.0043734393	0.20640807	0.78298096	-0.13083167	0.46175281	1.0411357	0.009412755	0.4362037	1.1399525	0.15401013	0.38043262	1.11988	-0.19109569	0.45001205	1.0645544	0.10796706	0.45742688	1.0533357	-0.044750286	0.42458823	0.39770792	0.028082424	0.43986548	0.42172687	0.14735043	0.38271686	0.59147552	0.10605864	0.35086014	0.08976931	0.10056319	0.32982669	0.099774033	0.1810157	0.39366736	0.30134521	0.17665099	0.27313824	0.034587902	0.13334746	0.47803879	0.044872517	0.14618207
3394	33.93	0.30007718	0.76656836	-0.085484886	0.19978537	0.78653308	0.14639554	0.27673898	0.7588194	0.11374418	0.088450539	0.77121118	0.0042157793	0.2106803	0.78898126	-0.13040199	0.46162082	1.0510024	0.0094885187	0.43485028	1.1492054	0.15409335	0.3796275	1.1279944	-0.19152	0.45002982	1.0740793	0.10812113	0.45742593	1.0628875	-0.044718288	0.42406049	0.39803918	0.02836508	0.43990253	0.42207654	0.14756924	0.38544507	0.59276685	0.10649413	0.35080084	0.089846939	0.10062338	0.32974829	0.099767189	0.18108408	0.39329889	0.3014393	0.17693251	0.27312909	0.034580593	0.13335089	0.47798737	0.044949299	0.14625639
3395	33.94	0.30435602	0.77336377	-0.085631821	0.20435675	0.79208765	0.14651726	0.28136551	0.76511407	0.11361478	0.093357117	0.77750641	0.0041164718	0.21497719	0.79493903	-0.13000021	0.46145459	1.060719	0.0095547018	0.43348239	1.1583419	0.15414577	0.37883075	1.1360065	-0.19185994	0.44997797	1.0834979	0.10827121	0.45738873	1.072338	-0.04469915	0.42342548	0.39840125	0.028689434	0.43982608	0.42245215	0.14783183	0.38817258	0.59408081	0.10697918	0.3507348	0.089938545	0.10069655	0.32965714	0.099762688	0.18116537	0.39285455	0.30155807	0.17724808	0.2731189	0.034573792	0.13335612	0.47793564	0.045037937	0.14634631
3396	33.95	0.30865387	0.78008307	-0.085788071	0.20898483	0.79759747	0.1466188	0.28605649	0.77135858	0.1134558	0.098309975	0.78377911	0.0040707459	0.21929051	0.80084412	-0.12967508	0.46126416	1.0702732	0.0096064281	0.43211041	1.1673438	0.15416876	0.37805103	1.1438979	-0.19209583	0.4498663	1.0927889	0.10841658	0.45732336	1.0816683	-0.044699898	0.42268604	0.3987948	0.029058828	0.43963477	0.42285379	0.14814149	0.39090396	0.59541602	0.10750854	0.35066238	0.090045349	0.10078277	0.32955362	0.099760818	0.18125993	0.39233444	0.30170114	0.17760016	0.27310803	0.034568302	0.13336305	0.47788477	0.045135994	0.1464509
3397	33.96	0.31297018	0.78671466	-0.085952393	0.2136647	0.80305627	0.14670326	0.29080991	0.77755231	0.11327074	0.10330595	0.79000214	0.0040731349	0.22361185	0.80668573	-0.12947473	0.46105884	1.0796541	0.0096393194	0.43074347	1.1761938	0.15416556	0.37729343	1.1516516	-0.19221358	0.44970483	1.101933	0.10855617	0.45723703	1.0908608	-0.044727085	0.42184549	0.39922055	0.029475494	0.43932782	0.42328189	0.14850043	0.39363998	0.59676703	0.1080714	0.35058383	0.090168365	0.1008819	0.32943835	0.099761871	0.1813678	0.39173932	0.30186789	0.17799065	0.27309692	0.034564854	0.13337157	0.47783618	0.045240524	0.14656857
